<!DOCTYPE svg PUBLIC "-//W3C//DTD SVG 20010904//EN" "http://www.w3.org/TR/2001/REC-SVG-20010904/DTD/svg10.dtd">
<svg version="1.0" xmlns="http://www.w3.org/2000/svg" width="1200px" height="751px" viewBox="0 0 12000 7510" preserveAspectRatio="xMidYMid meet">
<g id="layer101" fill="#353535" stroke="none">
 <path d="M5800 7499 c-636 -28 -1232 -208 -1775 -535 -108 -64 -290 -190 -350 -240 l-30 -25 175 3 175 3 135 83 c428 262 894 422 1425 489 196 25 615 25 815 0 520 -65 991 -225 1415 -483 169 -102 143 -95 327 -92 l163 3 -75 56 c-687 513 -1542 776 -2400 738z"/>
 <path d="M2345 4720 c-11 -17 -24 -69 -50 -190 -226 -1061 25 -2178 685 -3045 574 -755 1410 -1262 2345 -1424 984 -170 2008 65 2820 647 364 262 711 624 950 992 119 182 302 526 330 620 4 14 13 39 21 55 62 138 147 429 194 660 100 491 88 1060 -32 1590 l-23 100 -105 0 c-88 0 -105 -2 -103 -15 1 -8 14 -62 28 -120 34 -138 71 -357 84 -500 14 -146 14 -521 1 -665 -37 -396 -145 -798 -306 -1144 -24 -51 -44 -95 -44 -97 0 -13 -163 -294 -220 -379 -141 -212 -251 -348 -433 -534 -573 -583 -1290 -935 -2117 -1038 -200 -25 -619 -25 -815 0 -437 55 -800 163 -1175 351 -358 179 -632 377 -921 665 -496 497 -816 1083 -964 1766 -53 247 -74 452 -74 740 0 228 6 308 33 507 17 122 56 317 81 402 8 27 12 52 9 57 -7 13 -191 11 -199 -1z"/>
 <path d="M3586 4722 c-18 -29 -30 -181 -30 -372 0 -232 16 -359 70 -560 67 -248 182 -501 318 -696 26 -36 46 -68 46 -71 0 -4 -50 -87 -112 -186 -76 -122 -107 -181 -99 -186 6 -4 66 -22 134 -40 67 -18 151 -41 187 -51 36 -11 133 -38 215 -61 83 -23 152 -43 154 -45 3 -3 -10 -41 -29 -87 -55 -136 -179 -439 -200 -487 -21 -50 -266 -641 -336 -814 -25 -60 -44 -112 -42 -117 3 -8 124 56 638 333 47 25 148 79 225 121 77 41 226 120 330 177 105 56 287 154 405 218 118 63 267 143 331 177 64 35 125 65 135 69 10 3 43 -1 73 -9 30 -8 58 -12 63 -9 7 5 61 -23 523 -271 110 -59 263 -141 340 -183 77 -41 167 -89 200 -107 33 -18 179 -97 325 -175 146 -78 292 -157 325 -175 190 -103 297 -157 302 -151 3 3 -33 101 -82 218 -48 117 -117 283 -152 368 -35 85 -72 175 -83 200 -11 25 -41 99 -68 165 -27 66 -89 216 -137 333 -49 120 -84 217 -79 222 5 4 79 27 164 50 184 50 248 68 398 109 62 17 115 31 117 31 15 0 -4 36 -95 180 -55 87 -100 161 -100 164 0 3 25 40 55 81 205 276 337 591 396 940 17 99 22 175 23 315 1 188 -17 368 -38 382 -6 4 -53 8 -103 8 -107 0 -100 10 -78 -115 23 -125 20 -405 -6 -557 -36 -215 -79 -349 -179 -553 -64 -132 -164 -295 -185 -302 -6 -2 -127 185 -270 414 -143 229 -342 547 -442 707 -101 160 -191 307 -202 326 -42 76 -50 80 -172 80 -97 0 -110 -2 -105 -16 5 -14 323 -527 401 -649 115 -178 639 -1023 642 -1036 7 -27 -321 -321 -337 -301 -4 4 -30 63 -58 132 -110 268 -340 829 -352 855 -5 11 -61 148 -126 305 -64 157 -149 364 -189 460 -40 96 -76 185 -79 197 -15 47 -31 53 -137 53 -55 0 -99 -4 -99 -9 0 -6 16 -50 36 -98 123 -301 153 -372 170 -410 8 -17 14 -34 14 -37 0 -3 9 -25 19 -49 11 -23 63 -148 116 -277 121 -296 210 -513 291 -707 35 -84 64 -155 64 -158 0 -2 11 -28 24 -57 43 -98 126 -303 126 -314 0 -6 -51 -25 -112 -42 -62 -17 -230 -63 -373 -102 -143 -40 -323 -89 -400 -111 -76 -21 -141 -37 -143 -35 -3 4 -10 301 -37 1611 -9 424 -18 776 -20 783 -3 9 -37 12 -125 12 -88 0 -122 -3 -125 -12 -2 -7 -8 -285 -14 -618 -11 -563 -22 -1038 -37 -1576 l-6 -222 -32 10 c-51 16 -311 88 -816 226 -159 44 -180 51 -180 61 0 4 11 34 24 67 54 133 148 362 167 401 10 24 19 45 19 48 0 3 29 74 64 158 35 83 93 224 129 312 228 554 338 820 398 964 38 90 66 168 63 173 -9 14 -200 10 -211 -4 -5 -7 -33 -69 -61 -138 -28 -69 -105 -258 -172 -420 -67 -162 -125 -304 -130 -315 -5 -11 -32 -76 -60 -145 -28 -69 -59 -145 -70 -170 -11 -25 -53 -126 -93 -225 -210 -510 -241 -585 -247 -585 -26 0 -330 293 -330 317 0 7 116 199 258 425 544 869 772 1238 778 1253 5 13 -9 15 -103 15 -72 0 -114 -4 -125 -12 -8 -7 -223 -347 -478 -755 -255 -409 -466 -743 -469 -743 -29 0 -195 329 -250 495 -71 216 -92 341 -98 580 -3 136 -1 242 7 300 6 50 13 99 13 110 2 19 -5 20 -95 23 -53 1 -99 -1 -102 -6z m601 -1924 c29 -29 53 -56 53 -60 0 -6 -140 29 -149 38 -5 5 31 74 38 74 3 0 29 -23 58 -52z m3656 -8 c-8 -8 -96 -31 -100 -27 -1 2 14 20 34 41 l37 39 18 -23 c10 -13 15 -26 11 -30z m-560 -417 c9 -21 50 -121 92 -223 42 -102 103 -248 135 -325 108 -260 171 -417 167 -421 -2 -2 -75 35 -163 82 -87 48 -222 120 -299 161 -269 145 -331 178 -455 245 -69 37 -178 96 -242 130 -64 34 -115 64 -114 66 2 2 60 16 128 33 228 53 459 141 645 244 43 24 81 43 84 44 3 1 13 -16 22 -36z m-2490 -32 c124 -66 235 -113 374 -160 104 -35 326 -91 360 -91 38 0 26 -14 -39 -48 -35 -17 -101 -52 -148 -78 -47 -25 -155 -83 -240 -129 -140 -75 -302 -161 -465 -250 -265 -143 -367 -196 -371 -193 -2 3 17 54 42 114 25 60 56 136 69 169 20 52 45 111 75 180 5 11 31 74 58 140 138 337 167 405 170 405 2 0 54 -27 115 -59z"/>
 </g>
<g id="layer103" fill="#33cccc" stroke="none">
 <path d="M2663 6702 l-973 -2 0 -360 0 -360 -835 0 c-756 0 -836 -2 -842 -16 -4 -11 60 -82 228 -250 l234 -234 -233 -233 c-127 -127 -232 -238 -232 -245 0 -9 180 -12 838 -14 l837 -3 3 -131 3 -132 4309 0 4309 0 3 132 3 131 838 3 c735 2 838 4 835 17 -2 8 -106 118 -233 245 l-229 230 233 234 c168 168 232 239 228 250 -6 14 -86 16 -842 16 l-835 0 0 360 0 360 -1007 0 c-555 0 -2056 1 -3338 3 -1281 1 -2768 1 -3302 -1z m2726 -323 c150 -27 277 -120 321 -236 21 -55 42 -178 31 -188 -2 -3 -15 -5 -28 -5 -19 0 -23 5 -23 28 0 112 -59 223 -150 284 -66 44 -116 58 -235 65 -200 12 -328 -62 -420 -244 -19 -38 -39 -97 -44 -133 -17 -101 -14 -471 4 -555 38 -177 157 -313 310 -354 52 -14 161 -14 242 0 65 11 170 68 206 112 50 62 87 158 87 227 0 33 22 49 43 32 10 -8 11 -28 6 -74 -18 -164 -102 -268 -274 -340 -64 -26 -212 -36 -302 -19 -168 32 -301 165 -374 371 -17 49 -25 504 -10 601 8 48 26 103 52 156 108 224 300 317 558 272z m3998 -23 c103 -47 188 -155 213 -271 7 -32 9 -233 8 -570 l-3 -520 -25 0 -25 0 -5 535 c-6 629 -4 614 -103 712 -38 38 -73 62 -100 70 -55 17 -220 17 -278 0 -100 -30 -183 -140 -196 -263 -6 -57 -7 -59 -35 -59 l-29 0 7 68 c22 217 179 338 425 328 66 -3 99 -9 146 -30z m-7009 -319 l2 -327 433 2 432 3 3 328 2 328 28 -3 27 -3 0 -685 0 -685 -27 -3 -28 -3 0 330 0 331 -22 5 c-13 3 -207 4 -433 3 l-410 -3 -5 -330 -5 -330 -25 0 -25 0 -3 688 -2 688 27 -3 28 -3 3 -328z m1224 266 c14 -38 31 -86 38 -108 7 -22 15 -44 19 -50 3 -5 20 -48 37 -95 l30 -85 331 -3 c363 -3 339 -7 362 63 7 22 19 54 26 70 7 17 19 48 25 70 7 22 18 54 26 70 7 17 21 53 31 80 16 44 22 50 51 53 17 2 32 1 32 -1 0 -5 -31 -87 -130 -352 -23 -60 -52 -139 -65 -175 -14 -36 -38 -101 -56 -145 -17 -44 -39 -105 -49 -135 -10 -30 -27 -75 -38 -100 -10 -25 -28 -72 -40 -105 -12 -33 -35 -96 -52 -140 -17 -44 -40 -107 -51 -139 -24 -74 -34 -86 -70 -86 -24 0 -32 7 -49 44 -11 25 -20 48 -20 52 0 5 -16 51 -36 104 -42 110 -106 278 -140 367 -13 34 -24 68 -24 75 0 8 -4 18 -8 24 -5 5 -21 45 -36 89 -16 44 -34 94 -42 110 -18 41 -62 159 -81 220 -8 28 -18 55 -23 60 -4 6 -22 53 -40 105 -18 52 -37 100 -41 106 -12 15 -1 24 31 24 23 0 29 -8 52 -67z m2536 -270 l2 -333 103 0 102 1 195 206 c426 450 440 463 477 463 19 0 33 -4 31 -9 -3 -9 -182 -200 -404 -431 -185 -192 -223 -235 -224 -252 0 -9 39 -60 88 -114 73 -82 236 -267 365 -414 17 -19 52 -58 79 -87 57 -61 60 -75 16 -71 -26 2 -47 21 -116 98 -194 216 -322 359 -406 452 l-89 98 -108 0 -109 0 -2 -322 -3 -323 -25 0 -25 0 -3 688 -2 688 27 -3 28 -3 3 -332z m2052 -323 l0 -660 238 0 c130 0 243 -4 250 -9 8 -5 12 -17 10 -27 -3 -18 -22 -19 -528 -19 l-525 0 0 25 0 25 248 3 247 2 0 660 0 660 30 0 30 0 0 -660z"/>
 <path d="M3760 5890 c0 -9 135 -377 165 -450 18 -44 111 -297 120 -327 8 -27 23 -30 31 -5 3 9 23 62 44 117 21 55 43 117 50 138 7 22 18 51 26 65 8 15 14 32 14 37 0 6 16 51 36 100 20 50 42 113 51 140 8 28 18 55 23 60 10 13 40 105 40 122 0 10 -58 13 -300 13 -183 0 -300 -4 -300 -10z"/>
 </g>
<g id="layer104" fill="#f9f7f4" stroke="none">
 <path d="M5152 6379 c-77 -15 -169 -68 -227 -131 -71 -76 -131 -198 -146 -297 -15 -97 -7 -552 10 -601 73 -206 206 -339 374 -371 90 -17 238 -7 302 19 172 72 256 176 274 340 5 46 4 66 -6 74 -21 17 -43 1 -43 -32 0 -69 -37 -165 -87 -227 -36 -44 -141 -101 -206 -112 -81 -14 -190 -14 -242 0 -153 41 -272 177 -310 354 -18 84 -21 454 -4 555 5 36 25 95 44 133 92 182 220 256 420 244 119 -7 169 -21 235 -65 91 -61 150 -172 150 -284 0 -23 4 -28 23 -28 13 0 26 2 28 5 11 10 -10 133 -31 188 -29 77 -110 159 -194 197 -102 45 -251 62 -364 39z"/>
 <path d="M9095 6376 c-163 -38 -262 -150 -279 -318 l-7 -68 29 0 c28 0 29 2 35 59 13 123 96 233 196 263 58 17 223 17 278 0 27 -8 62 -32 100 -70 99 -98 97 -83 103 -712 l5 -535 25 0 25 0 3 520 c1 337 -1 538 -8 570 -25 116 -110 224 -213 271 -74 33 -199 41 -292 20z"/>
 <path d="M2322 5683 l3 -688 25 0 25 0 5 330 5 330 410 3 c226 1 420 0 433 -3 l22 -5 0 -331 0 -330 28 3 27 3 0 685 0 685 -27 3 -28 3 -2 -328 -3 -328 -432 -3 -433 -2 -2 327 -3 328 -28 3 -27 3 2 -688z"/>
 <path d="M3517 6363 c-4 -3 -3 -11 2 -17 4 -6 23 -54 41 -106 18 -52 36 -99 40 -105 5 -5 15 -32 23 -60 19 -61 63 -179 81 -220 8 -16 26 -66 42 -110 15 -44 31 -84 36 -89 4 -6 8 -16 8 -24 0 -7 11 -41 24 -75 34 -89 98 -257 140 -367 20 -53 36 -99 36 -104 0 -4 9 -27 20 -52 17 -37 25 -44 49 -44 36 0 46 12 70 86 11 32 34 95 51 139 17 44 40 107 52 140 12 33 30 80 40 105 11 25 28 70 38 100 10 30 32 91 49 135 18 44 42 109 56 145 13 36 42 115 65 175 99 265 130 347 130 352 0 2 -15 3 -32 1 -29 -3 -35 -9 -51 -53 -10 -27 -24 -63 -31 -80 -8 -16 -19 -48 -26 -70 -6 -22 -18 -53 -25 -70 -7 -16 -19 -48 -26 -70 -23 -70 1 -66 -362 -63 l-331 3 -30 85 c-17 47 -34 90 -37 95 -4 6 -12 28 -19 50 -7 22 -24 70 -38 108 -23 59 -29 67 -52 67 -15 0 -30 -3 -33 -7z m843 -476 c0 -17 -30 -109 -40 -122 -5 -5 -15 -32 -23 -60 -9 -27 -31 -90 -51 -140 -20 -49 -36 -94 -36 -100 0 -5 -6 -22 -14 -37 -8 -14 -19 -43 -26 -65 -7 -21 -29 -83 -50 -138 -21 -55 -41 -108 -44 -117 -8 -25 -23 -22 -31 5 -9 30 -102 283 -120 327 -30 73 -165 441 -165 450 0 6 117 10 300 10 242 0 300 -3 300 -13z"/>
 <path d="M6082 5683 l3 -688 25 0 25 0 3 323 2 322 109 0 108 0 89 -98 c84 -93 212 -236 406 -452 69 -77 90 -96 116 -98 44 -4 41 10 -16 71 -27 29 -62 68 -79 87 -129 147 -292 332 -365 414 -49 54 -88 105 -88 114 1 17 39 60 224 252 222 231 401 422 404 431 2 5 -12 9 -31 9 -37 0 -51 -13 -477 -463 l-195 -206 -102 -1 -103 0 -2 333 -3 332 -28 3 -27 3 2 -688z"/>
 <path d="M8130 5710 l0 -660 -247 -2 -248 -3 0 -25 0 -25 525 0 c506 0 525 1 528 19 2 10 -2 22 -10 27 -7 5 -120 9 -250 9 l-238 0 0 660 0 660 -30 0 -30 0 0 -660z"/>
 </g>

</svg>
